<svg width="17" height="18" viewBox="0 0 17 18" fill="none" xmlns="http://www.w3.org/2000/svg">
<path d="M15.7286 4.07358C13.1856 -0.000134662 7.9937 -1.21124 3.96729 1.32107C0.0468473 3.85338 -1.22465 9.35841 1.31834 13.4321L1.53026 13.7624L0.682596 17.0654L3.86134 16.1846L4.17921 16.4048C5.55666 17.1755 7.04008 17.6159 8.52349 17.6159C10.1129 17.6159 11.7022 17.1755 13.0797 16.2947C17.0001 13.6523 18.1657 8.2574 15.7286 4.07358ZM13.5035 12.5513C13.0797 13.2119 12.5499 13.6523 11.8082 13.7624C11.3844 13.7624 10.8546 13.9826 8.7354 13.1018C6.93412 12.221 5.45071 10.7897 4.39113 9.1382C3.75538 8.3675 3.4375 7.3766 3.33155 6.38569C3.33155 5.50489 3.64942 4.73419 4.17921 4.18368C4.39113 3.96348 4.60304 3.85338 4.81496 3.85338H5.34475C5.55666 3.85338 5.76858 3.85338 5.87454 4.29378C6.08645 4.84429 6.61624 6.16549 6.61624 6.27559C6.7222 6.38569 6.7222 6.60589 6.61624 6.71599C6.7222 6.9362 6.61625 7.1564 6.51029 7.2665C6.40433 7.3766 6.29837 7.5968 6.19241 7.7069C5.9805 7.817 5.87454 8.0372 5.9805 8.2574C6.40433 8.918 6.93412 9.57861 7.46391 10.1291C8.09966 10.6796 8.7354 11.12 9.47711 11.4503C9.68903 11.5604 9.90094 11.5604 10.0069 11.3402C10.1129 11.12 10.6426 10.5695 10.8546 10.3493C11.0665 10.1291 11.1724 10.1291 11.3844 10.2392L13.0797 11.12C13.2916 11.2301 13.5035 11.3402 13.6095 11.4503C13.7154 11.7806 13.7154 12.221 13.5035 12.5513Z" fill="white"/>
</svg>
