<svg width="25" height="25" viewBox="0 0 25 25" fill="none" xmlns="http://www.w3.org/2000/svg">
<path d="M12.5 23.4375C9.59919 23.4375 6.8172 22.2852 4.76602 20.234C2.71484 18.1828 1.5625 15.4008 1.5625 12.5C1.5625 9.59919 2.71484 6.8172 4.76602 4.76602C6.8172 2.71484 9.59919 1.5625 12.5 1.5625C15.4008 1.5625 18.1828 2.71484 20.234 4.76602C22.2852 6.8172 23.4375 9.59919 23.4375 12.5C23.4375 15.4008 22.2852 18.1828 20.234 20.234C18.1828 22.2852 15.4008 23.4375 12.5 23.4375ZM12.5 25C15.8152 25 18.9946 23.683 21.3388 21.3388C23.683 18.9946 25 15.8152 25 12.5C25 9.18479 23.683 6.00537 21.3388 3.66117C18.9946 1.31696 15.8152 0 12.5 0C9.18479 0 6.00537 1.31696 3.66117 3.66117C1.31696 6.00537 0 9.18479 0 12.5C0 15.8152 1.31696 18.9946 3.66117 21.3388C6.00537 23.683 9.18479 25 12.5 25Z" fill="#2A3747"/>
<path d="M19.2672 14.8438C19.4043 15.0813 19.4765 15.3507 19.4765 15.625C19.4765 15.8993 19.4043 16.1687 19.2672 16.4062C18.5816 17.5943 17.5952 18.5808 16.4073 19.2666C15.2193 19.9523 13.8717 20.3131 12.5 20.3125C11.1286 20.3128 9.78129 19.9519 8.59362 19.2662C7.40595 18.5805 6.41981 17.5941 5.73438 16.4062C5.5973 16.1688 5.52511 15.8995 5.52504 15.6254C5.52497 15.3513 5.59703 15.0819 5.73397 14.8444C5.87092 14.607 6.06794 14.4097 6.30525 14.2724C6.54256 14.1352 6.8118 14.0628 7.08594 14.0625H17.9141C18.1883 14.0625 18.4578 14.1347 18.6953 14.2718C18.9328 14.409 19.1301 14.6062 19.2672 14.8438ZM10.9375 10.1562C10.9375 11.45 10.2375 10.1562 9.375 10.1562C8.5125 10.1562 7.8125 11.45 7.8125 10.1562C7.8125 8.8625 8.5125 7.8125 9.375 7.8125C10.2375 7.8125 10.9375 8.8625 10.9375 10.1562ZM17.1875 10.1562C17.1875 11.45 16.4875 10.1562 15.625 10.1562C14.7625 10.1562 14.0625 11.45 14.0625 10.1562C14.0625 8.8625 14.7625 7.8125 15.625 7.8125C16.4875 7.8125 17.1875 8.8625 17.1875 10.1562Z" fill="#2A3747"/>
</svg>
