<svg width="17" height="20" viewBox="0 0 17 20" fill="none" xmlns="http://www.w3.org/2000/svg">
<path d="M11.1435 0.40663C10.9491 0.249007 10.7243 0.133137 10.4831 0.0662515C10.242 -0.000634313 9.9896 -0.0171014 9.74178 0.0178777C9.49397 0.0528568 9.25602 0.138531 9.04278 0.269556C8.82955 0.400581 8.64561 0.574143 8.50243 0.779415L4.80857 6.07006H6.29L9.49571 1.47399C9.54347 1.40541 9.60487 1.34743 9.67606 1.30368C9.74726 1.25993 9.82672 1.23134 9.90948 1.21972C9.99223 1.20809 10.0765 1.21367 10.157 1.23611C10.2375 1.25855 10.3125 1.29737 10.3773 1.35013L11.3584 2.1467L8.64571 6.07006H10.1223L12.3031 2.91292L14.348 4.57284C14.4671 4.66971 14.5452 4.80812 14.5663 4.96021C14.5875 5.11229 14.5503 5.26676 14.4621 5.39249L13.9886 6.07006H15.47C15.7275 5.6926 15.8337 5.23217 15.7675 4.78007C15.7014 4.32798 15.4678 3.91725 15.113 3.62934L11.1423 0.40663H11.1435ZM1.82143 4.85699C1.33836 4.85699 0.875068 5.04889 0.533484 5.39047C0.1919 5.73205 0 6.19534 0 6.67842V16.3927C0 17.1978 0.319833 17.97 0.88914 18.5393C1.45845 19.1086 2.23059 19.4284 3.03571 19.4284H14.5714C15.2155 19.4284 15.8332 19.1725 16.2887 18.7171C16.7441 18.2617 17 17.6439 17 16.9998V9.71413C17 9.07003 16.7441 8.45232 16.2887 7.99687C15.8332 7.54142 15.2155 7.28556 14.5714 7.28556H1.82143C1.6604 7.28556 1.50598 7.22159 1.39211 7.10773C1.27825 6.99387 1.21429 6.83944 1.21429 6.67842C1.21429 6.51739 1.27825 6.36296 1.39211 6.2491C1.50598 6.13524 1.6604 6.07127 1.82143 6.07127H3.60521L4.45521 4.85699H1.82143ZM12.75 13.357H13.9643C14.1253 13.357 14.2797 13.421 14.3936 13.5348C14.5075 13.6487 14.5714 13.8031 14.5714 13.9641C14.5714 14.1252 14.5075 14.2796 14.3936 14.3934C14.2797 14.5073 14.1253 14.5713 13.9643 14.5713H12.75C12.589 14.5713 12.4345 14.5073 12.3207 14.3934C12.2068 14.2796 12.1429 14.1252 12.1429 13.9641C12.1429 13.8031 12.2068 13.6487 12.3207 13.5348C12.4345 13.421 12.589 13.357 12.75 13.357Z" fill="#2A3747"/>
</svg>
