<svg width="16" height="16" viewBox="0 0 16 16" fill="none" xmlns="http://www.w3.org/2000/svg">
<path d="M8 6.00244C8.39556 6.00244 8.78224 6.11974 9.11114 6.3395C9.44004 6.55927 9.69638 6.87162 9.84776 7.23707C9.99913 7.60253 10.0387 8.00466 9.96157 8.39262C9.8844 8.78058 9.69392 9.13695 9.41421 9.41665C9.13451 9.69636 8.77814 9.88684 8.39018 9.96401C8.00222 10.0412 7.60009 10.0016 7.23463 9.8502C6.86918 9.69883 6.55682 9.44248 6.33706 9.11358C6.1173 8.78468 6 8.398 6 8.00244C6.00066 7.47221 6.21159 6.96389 6.58652 6.58896C6.96145 6.21403 7.46977 6.0031 8 6.00244ZM8 5.00244C7.40666 5.00244 6.82664 5.17839 6.33329 5.50803C5.83994 5.83768 5.45542 6.30621 5.22836 6.85439C5.0013 7.40257 4.94189 8.00577 5.05764 8.58771C5.1734 9.16966 5.45912 9.7042 5.87868 10.1238C6.29824 10.5433 6.83279 10.829 7.41473 10.9448C7.99667 11.0606 8.59987 11.0011 9.14805 10.7741C9.69623 10.547 10.1648 10.1625 10.4944 9.66915C10.8241 9.1758 11 8.59579 11 8.00244C11 7.20679 10.6839 6.44373 10.1213 5.88112C9.55871 5.31851 8.79565 5.00244 8 5.00244ZM2.697 3.40644L3.405 2.69944L5.1575 4.45244L4.45 5.15944L2.697 3.40644ZM1 7.50244H3.5V8.50244H1V7.50244ZM2.697 12.5989L4.45 10.8459L5.157 11.5529L3.4045 13.3059L2.697 12.5989ZM7.5 12.5024H8.5V15.0024H7.5V12.5024ZM10.8435 11.5524L11.5505 10.8454L13.3035 12.5984L12.5965 13.3054L10.8435 11.5524ZM12.5 7.50244H15V8.50244H12.5V7.50244ZM10.8435 4.45194L12.5965 2.69894L13.3035 3.40594L11.5505 5.15894L10.8435 4.45194ZM7.5 1.00244H8.5V3.50244H7.5V1.00244Z" fill="#F0536B"/>
</svg>
