<svg width="26" height="28" viewBox="0 0 26 28" fill="none" xmlns="http://www.w3.org/2000/svg">
<path d="M10.737 10.8507C10.737 10.0586 10.7398 9.49166 10.7817 8.96964C10.8151 8.62392 10.9909 8.2412 11.421 7.88427C11.8867 7.49787 12.4758 7.2998 12.9578 7.2998H13.0419C13.5236 7.2998 14.1137 7.49765 14.5819 7.88582C15.0116 8.24204 15.1919 8.62609 15.2289 8.97516C15.2389 9.11241 15.2417 9.29635 15.2404 9.67861C15.2403 9.70317 15.2402 9.729 15.2401 9.75601C15.2386 10.1007 15.2364 10.6382 15.2744 11.1928C15.2889 11.4036 15.3167 11.6133 15.3577 11.8206C15.6004 13.0482 16.052 14.2252 16.6932 15.2966C14.2347 15.5191 11.7625 15.5194 9.30396 15.2973C9.94985 14.2237 10.4031 13.0426 10.6441 11.8104C10.7059 11.4942 10.737 11.1728 10.737 10.8507Z" stroke="#2A3747" stroke-width="10" stroke-linecap="round" stroke-linejoin="round"/>
<path d="M10.3512 23.978C10.8921 24.6987 11.6864 25.165 12.5583 25.2739C13.4302 25.3829 14.3078 25.1253 14.9969 24.5583C15.2088 24.3906 15.3995 24.1956 15.5645 23.978" stroke="#2A3747" stroke-width="1.5" stroke-linecap="round" stroke-linejoin="round"/>
</svg>
