<svg width="100" height="100" viewBox="0 0 100 100" fill="none" xmlns="http://www.w3.org/2000/svg">
<rect x="0.5" y="0.5" width="99" height="99" rx="49.5" fill="#2A3747" stroke="#F0536B"/>
<rect x="71" y="79" width="18" height="18" rx="9" fill="#F0536B"/>
<path d="M80 93V88M80 88V83M80 88H85M80 88H75" stroke="white" stroke-width="2" stroke-linecap="round"/>
<path d="M66.6562 37.9336H60.4141L58.927 33.766C58.8242 33.4808 58.6359 33.2343 58.3878 33.0602C58.1397 32.886 57.8439 32.7927 57.5408 32.793H43.4592C42.8396 32.793 42.2842 33.1831 42.0776 33.766L40.5859 37.9336H34.3438C32.315 37.9336 30.6719 39.5768 30.6719 41.6055V62.5352C30.6719 64.5639 32.315 66.207 34.3438 66.207H66.6562C68.685 66.207 70.3281 64.5639 70.3281 62.5352V41.6055C70.3281 39.5768 68.685 37.9336 66.6562 37.9336ZM50.5 58.8633C46.4426 58.8633 43.1562 55.577 43.1562 51.5195C43.1562 47.4621 46.4426 44.1758 50.5 44.1758C54.5574 44.1758 57.8438 47.4621 57.8438 51.5195C57.8438 55.577 54.5574 58.8633 50.5 58.8633ZM46.0938 51.5195C46.0938 52.6881 46.558 53.8089 47.3843 54.6352C48.2106 55.4616 49.3314 55.9258 50.5 55.9258C51.6686 55.9258 52.7894 55.4616 53.6157 54.6352C54.442 53.8089 54.9062 52.6881 54.9062 51.5195C54.9062 50.3509 54.442 49.2302 53.6157 48.4038C52.7894 47.5775 51.6686 47.1133 50.5 47.1133C49.3314 47.1133 48.2106 47.5775 47.3843 48.4038C46.558 49.2302 46.0938 50.3509 46.0938 51.5195Z" fill="white" fill-opacity="0.25"/>
</svg>
