<svg width="21" height="21" viewBox="0 0 21 21" fill="none" xmlns="http://www.w3.org/2000/svg">
<path d="M10.5 0C7.71523 0 5.04451 1.10625 3.07538 3.07538C1.10625 5.04451 0 7.71523 0 10.5C0 13.2848 1.10625 15.9555 3.07538 17.9246C5.04451 19.8938 7.71523 21 10.5 21C13.2848 21 15.9555 19.8938 17.9246 17.9246C19.8938 15.9555 21 13.2848 21 10.5C21 7.71523 19.8938 5.04451 17.9246 3.07538C15.9555 1.10625 13.2848 0 10.5 0ZM16.4862 14.3262L14.325 16.4875L10.5 12.6612L6.67375 16.4862L4.5125 14.325L8.34 10.5L4.51375 6.67375L6.675 4.51375L10.5 8.33875L14.3262 4.5125L16.4875 6.67375L12.66 10.5L16.4862 14.3262Z" fill="#F0536B"/>
</svg>
