<svg width="40" height="34" viewBox="0 0 40 34" fill="none" xmlns="http://www.w3.org/2000/svg">
<path d="M8.14111 0.75583H32.7002C33.8163 0.75583 34.721 1.66058 34.721 2.77664V24.8487C34.721 25.4067 34.2687 25.8591 33.7106 25.8591H9.88084C9.3347 25.8591 8.88741 25.4251 8.87089 24.8793L8.14111 0.75583Z" fill="#2A3747"/>
<path d="M34.7211 25.8591V5.18586C34.7235 4.60342 34.6106 4.02626 34.3888 3.48769C34.167 2.94912 33.8408 2.45979 33.429 2.04794C33.0171 1.63609 32.5278 1.30987 31.9892 1.08811C31.4507 0.866344 30.8735 0.753426 30.2911 0.755868H5.18779" stroke="#2A3747" stroke-linecap="round" stroke-linejoin="round"/>
<path d="M17.0011 12.5694H28.8144" stroke="white" stroke-linecap="round" stroke-linejoin="round"/>
<path d="M17.0011 18.4759H28.8144" stroke="white" stroke-linecap="round" stroke-linejoin="round"/>
<path d="M1.88376 8.13875C1.40557 7.60335 1.06466 6.95977 0.890366 6.2634C0.716071 5.56703 0.713614 4.83873 0.883207 4.1412C1.0528 3.44367 1.38936 2.7978 1.86393 2.25919C2.33849 1.72058 2.93683 1.30536 3.60745 1.04928C4.27807 0.793191 5.00088 0.703913 5.71366 0.789126C6.42643 0.874339 7.10782 1.13149 7.69918 1.53844C8.29053 1.9454 8.77413 2.48996 9.10835 3.12527C9.44257 3.76057 9.6174 4.46757 9.61778 5.18543V28.812C9.61816 29.5299 9.79299 30.2369 10.1272 30.8722C10.4614 31.5075 10.945 32.0521 11.5364 32.459C12.1277 32.866 12.8091 33.1231 13.5219 33.2083C14.2347 33.2936 14.9575 33.2043 15.6281 32.9482C16.2987 32.6921 16.8971 32.2769 17.3716 31.7383C17.8462 31.1997 18.1828 30.5538 18.3524 29.8563C18.5219 29.1587 18.5195 28.4304 18.3452 27.7341C18.1709 27.0377 17.83 26.3941 17.3518 25.8587H38.0251C38.5953 26.4963 38.9688 27.2853 39.1004 28.1304C39.232 28.9756 39.1161 29.8408 38.7667 30.6215C38.4174 31.4023 37.8494 32.0652 37.1315 32.5302C36.4136 32.9952 35.5764 33.2424 34.7211 33.242H14.0478" stroke="#2A3747" stroke-width="1.5" stroke-linecap="round" stroke-linejoin="round"/>
<path d="M18.4778 28.8122C18.4778 31.2588 16.4944 33.2422 14.0478 33.2422C11.6011 33.2422 9.61777 31.2588 9.61777 28.8122C9.61777 26.3656 11.0944 23.644 14.0478 24.3822C16.4944 24.3822 18.4778 26.3656 18.4778 28.8122Z" fill="#2A3747"/>
</svg>
