<svg width="18" height="19" viewBox="0 0 18 19" fill="none" xmlns="http://www.w3.org/2000/svg">
<path d="M13.5078 18.2341C13.4093 18.2341 13.3249 18.2023 13.2546 18.1388C13.1842 18.0758 13.135 17.995 13.1069 17.8966L12.917 16.9682C12.7482 16.8979 12.5901 16.8242 12.4427 16.7471C12.2947 16.6695 12.1434 16.5744 11.9887 16.4619L11.0814 16.7362C10.983 16.7643 10.8916 16.7606 10.8072 16.7252C10.7228 16.6903 10.6525 16.6307 10.5962 16.5463L10.0898 15.7023C10.0336 15.6179 10.0158 15.5265 10.0367 15.4281C10.058 15.3296 10.1109 15.2452 10.1953 15.1749L10.8916 14.563C10.8634 14.3942 10.8494 14.2114 10.8494 14.0145C10.8494 13.8175 10.8634 13.6347 10.8916 13.4659L10.1953 12.8541C10.1109 12.7837 10.058 12.6993 10.0367 12.6009C10.0158 12.5024 10.0336 12.411 10.0898 12.3266L10.5962 11.4827C10.6525 11.3983 10.7228 11.3384 10.8072 11.3029C10.8916 11.268 10.983 11.2647 11.0814 11.2928L11.9887 11.5671C12.1434 11.4545 12.2947 11.3595 12.4427 11.2818C12.5901 11.2047 12.7482 11.131 12.917 11.0607L13.1069 10.1324C13.135 10.0339 13.1842 9.95318 13.2546 9.89017C13.3249 9.82659 13.4093 9.7948 13.5078 9.7948H14.5205C14.6189 9.7948 14.7033 9.82659 14.7737 9.89017C14.844 9.95318 14.8932 10.0339 14.9213 10.1324L15.1112 11.0607C15.28 11.131 15.4384 11.2047 15.5864 11.2818C15.7338 11.3595 15.8848 11.4545 16.0396 11.5671L16.9468 11.2928C17.0452 11.2647 17.1367 11.268 17.2211 11.3029C17.3055 11.3384 17.3758 11.3983 17.432 11.4827L17.9384 12.3266C17.9947 12.411 18.0124 12.5024 17.9916 12.6009C17.9702 12.6993 17.9173 12.7837 17.8329 12.8541L17.1367 13.4659C17.1648 13.6347 17.1789 13.8175 17.1789 14.0145C17.1789 14.2114 17.1648 14.3942 17.1367 14.563L17.8329 15.1749C17.9173 15.2452 17.9702 15.3296 17.9916 15.4281C18.0124 15.5265 17.9947 15.6179 17.9384 15.7023L17.432 16.5463C17.3758 16.6307 17.3055 16.6903 17.2211 16.7252C17.1367 16.7606 17.0452 16.7643 16.9468 16.7362L16.0396 16.4619C15.8848 16.5744 15.7338 16.6695 15.5864 16.7471C15.4384 16.8242 15.28 16.8979 15.1112 16.9682L14.9213 17.8966C14.8932 17.995 14.844 18.0758 14.7737 18.1388C14.7033 18.2023 14.6189 18.2341 14.5205 18.2341H13.5078ZM14.0141 15.7023C14.4783 15.7023 14.8758 15.5372 15.2066 15.2069C15.5369 14.8761 15.702 14.4786 15.702 14.0145C15.702 13.5503 15.5369 13.1528 15.2066 12.822C14.8758 12.4917 14.4783 12.3266 14.0141 12.3266C13.55 12.3266 13.1527 12.4917 12.8225 12.822C12.4917 13.1528 12.3263 13.5503 12.3263 14.0145C12.3263 14.4786 12.4917 14.8761 12.8225 15.2069C13.1527 15.5372 13.55 15.7023 14.0141 15.7023ZM0.869863 15.7023C0.490093 15.7023 0.226504 15.5299 0.0790975 15.185C-0.068872 14.8407 -0.00923406 14.5349 0.258011 14.2676L14.2673 0.258361C14.5345 -0.00888398 14.8406 -0.0688032 15.1855 0.0786037C15.5298 0.226573 15.702 0.490443 15.702 0.870213V8.36012C15.4347 8.27572 15.1605 8.21243 14.8791 8.17023C14.5978 8.12803 14.3095 8.10694 14.0141 8.10694C12.3544 8.10694 10.9726 8.67659 9.86872 9.8159C8.76429 10.9552 8.21208 12.3547 8.21208 14.0145C8.21208 14.3239 8.23683 14.6123 8.28634 14.8795C8.33529 15.1467 8.409 15.421 8.50745 15.7023H0.869863Z" fill="#2A3747"/>
</svg>
