<svg width="24" height="21" viewBox="0 0 24 21" fill="none" xmlns="http://www.w3.org/2000/svg">
<path d="M0.5 2.5V18.5C0.5 19.0304 0.710714 19.5391 1.08579 19.9142C1.46086 20.2893 1.96957 20.5 2.5 20.5H22.5C22.7652 20.5 23.0196 20.3946 23.2071 20.2071C23.3946 20.0196 23.5 19.7652 23.5 19.5V5.5C23.5 5.23478 23.3946 4.98043 23.2071 4.79289C23.0196 4.60536 22.7652 4.5 22.5 4.5H2.5C1.96957 4.5 1.46086 4.28929 1.08579 3.91421C0.710714 3.53914 0.5 3.03043 0.5 2.5ZM0.5 2.5C0.5 1.96957 0.710714 1.46086 1.08579 1.08579C1.46086 0.710714 1.96957 0.5 2.5 0.5H19.5" stroke="#F0536B" stroke-linecap="round" stroke-linejoin="round"/>
<path d="M18 14C18.8284 14 19.5 13.3284 19.5 12.5C19.5 11.6716 18.8284 11 18 11C17.1716 11 16.5 11.6716 16.5 12.5C16.5 13.3284 17.1716 14 18 14Z" fill="#F0536B"/>
</svg>
