<svg width="34" height="29" viewBox="0 0 34 29" fill="none" xmlns="http://www.w3.org/2000/svg">
<path d="M15.7857 0H18.2143V29H15.7857V0ZM9.71429 3.625V25.375H2.42857V3.625H9.71429ZM9.71429 1.20833H2.42857C1.78447 1.20833 1.16676 1.46295 0.711312 1.91616C0.255866 2.36937 0 2.98406 0 3.625V25.375C0 26.0159 0.255866 26.6306 0.711312 27.0838C1.16676 27.5371 1.78447 27.7917 2.42857 27.7917H9.71429C10.3584 27.7917 10.9761 27.5371 11.4315 27.0838C11.887 26.6306 12.1429 26.0159 12.1429 25.375V3.625C12.1429 2.98406 11.887 2.36937 11.4315 1.91616C10.9761 1.46295 10.3584 1.20833 9.71429 1.20833ZM31.5714 3.625V25.375H24.2857V3.625H31.5714ZM31.5714 1.20833H24.2857C23.6416 1.20833 23.0239 1.46295 22.5685 1.91616C22.113 2.36937 21.8571 2.98406 21.8571 3.625V25.375C21.8571 26.0159 22.113 26.6306 22.5685 27.0838C23.0239 27.5371 23.6416 27.7917 24.2857 27.7917H31.5714C32.2155 27.7917 32.8332 27.5371 33.2887 27.0838C33.7441 26.6306 34 26.0159 34 25.375V3.625C34 2.98406 33.7441 2.36937 33.2887 1.91616C32.8332 1.46295 32.2155 1.20833 31.5714 1.20833Z" fill="#2A3747"/>
</svg>
