<svg width="25" height="25" viewBox="0 0 25 25" fill="none" xmlns="http://www.w3.org/2000/svg">
<path d="M18.5521 4.65617C18.4688 4.65617 18.3854 4.63534 18.3125 4.59367C16.3125 3.56242 14.5833 3.12492 12.5104 3.12492C10.4479 3.12492 8.48959 3.6145 6.70834 4.59367C6.45834 4.72909 6.14584 4.63534 6 4.38534C5.93504 4.26351 5.92047 4.12105 5.95943 3.9886C5.99838 3.85614 6.08776 3.74426 6.20834 3.677C8.14584 2.62492 10.2708 2.08325 12.5104 2.08325C14.7292 2.08325 16.6667 2.57284 18.7917 3.66659C19.0521 3.802 19.1458 4.1145 19.0104 4.3645C18.9692 4.45134 18.9044 4.52478 18.8233 4.57638C18.7422 4.62798 18.6482 4.65563 18.5521 4.65617ZM3.64584 10.1249C3.54982 10.1258 3.45543 10.1001 3.37314 10.0506C3.29084 10.0011 3.22387 9.92982 3.17963 9.84459C3.1354 9.75936 3.11564 9.66354 3.12255 9.56777C3.12945 9.47199 3.16275 9.38 3.21875 9.302C4.25 7.84367 5.5625 6.69783 7.125 5.89575C10.3958 4.20825 14.5833 4.19784 17.8646 5.88534C19.4271 6.68742 20.7396 7.82283 21.7708 9.27075C21.8108 9.32673 21.8393 9.39007 21.8546 9.45712C21.87 9.52417 21.8719 9.59359 21.8603 9.66138C21.8487 9.72918 21.8237 9.794 21.7869 9.8521C21.7501 9.91021 21.7022 9.96045 21.6458 9.99992C21.4063 10.1666 21.0833 10.1145 20.9167 9.87492C20.0044 8.58365 18.7928 7.5328 17.3854 6.81242C14.3958 5.28117 10.5729 5.28117 7.59375 6.82284C6.17709 7.552 4.98959 8.59367 4.05209 9.90617C3.96875 10.052 3.8125 10.1249 3.64584 10.1249ZM10.1563 22.6978C10.0879 22.6987 10.0202 22.6852 9.95743 22.6583C9.89464 22.6314 9.83818 22.5916 9.79167 22.5416C8.88542 21.6353 8.39584 21.052 7.69792 19.7916C6.97917 18.5103 6.60417 16.9478 6.60417 15.2708C6.60417 12.177 9.25 9.65617 12.5 9.65617C15.75 9.65617 18.3958 12.177 18.3958 15.2708C18.3958 15.5624 18.1667 15.7916 17.875 15.7916C17.5833 15.7916 17.3542 15.5624 17.3542 15.2708C17.3542 12.7499 15.1771 10.6978 12.5 10.6978C9.82292 10.6978 7.64584 12.7499 7.64584 15.2708C7.64584 16.7708 7.97917 18.1562 8.61459 19.2812C9.28125 20.4791 9.73959 20.9895 10.5417 21.802C10.7396 22.0103 10.7396 22.3333 10.5417 22.5416C10.4271 22.6458 10.2917 22.6978 10.1563 22.6978ZM17.625 20.7708C16.3854 20.7708 15.2917 20.4583 14.3958 19.8437C12.8438 18.7916 11.9167 17.0833 11.9167 15.2708C11.9167 14.9791 12.1458 14.7499 12.4375 14.7499C12.7292 14.7499 12.9583 14.9791 12.9583 15.2708C12.9583 16.7395 13.7083 18.1249 14.9792 18.9791C15.7188 19.4791 16.5833 19.7187 17.625 19.7187C17.875 19.7187 18.2917 19.6874 18.7083 19.6145C18.9896 19.5624 19.2604 19.7499 19.3125 20.0416C19.3646 20.3228 19.1771 20.5937 18.8854 20.6458C18.2917 20.7603 17.7708 20.7708 17.625 20.7708ZM15.5313 22.9166C15.4896 22.9166 15.4375 22.9062 15.3958 22.8958C13.7396 22.4374 12.6563 21.8228 11.5208 20.7083C10.8013 19.9978 10.2308 19.151 9.84268 18.2173C9.45454 17.2836 9.25659 16.2819 9.26042 15.2708C9.26042 13.5833 10.6979 12.2083 12.4688 12.2083C14.2396 12.2083 15.6771 13.5833 15.6771 15.2708C15.6771 16.3853 16.6458 17.2916 17.8438 17.2916C19.0417 17.2916 20.0104 16.3853 20.0104 15.2708C20.0104 11.3437 16.625 8.15617 12.4583 8.15617C9.5 8.15617 6.79167 9.802 5.57292 12.3541C5.16667 13.1978 4.95834 14.1874 4.95834 15.2708C4.95834 16.0833 5.03125 17.3645 5.65625 19.0312C5.76042 19.302 5.625 19.6041 5.35417 19.6978C5.08334 19.802 4.78125 19.6562 4.6875 19.3958C4.18557 18.0784 3.92789 16.6805 3.92709 15.2708C3.92709 14.0208 4.16667 12.8853 4.63542 11.8958C6.02084 8.9895 9.09375 7.10409 12.4583 7.10409C17.1979 7.10409 21.0521 10.7603 21.0521 15.2603C21.0521 16.9478 19.6146 18.3228 17.8438 18.3228C16.0729 18.3228 14.6354 16.9478 14.6354 15.2603C14.6354 14.1458 13.6667 13.2395 12.4688 13.2395C11.2708 13.2395 10.3021 14.1458 10.3021 15.2603C10.3021 17.0416 10.9896 18.7083 12.25 19.9583C13.2396 20.9374 14.1875 21.4791 15.6563 21.8853C15.9375 21.9583 16.0938 22.2499 16.0208 22.5208C15.9688 22.7603 15.75 22.9166 15.5313 22.9166Z" fill="#F0536B"/>
</svg>
