<svg width="19" height="16" viewBox="0 0 19 16" fill="none" xmlns="http://www.w3.org/2000/svg">
<path d="M9.49998 6.23017e-06C7.68889 -0.00206871 5.91503 0.514188 4.3879 1.48781C2.86077 2.46142 1.64416 3.85173 0.881759 5.49453C0.119354 7.13733 -0.156999 8.964 0.0853369 10.7588C0.327673 12.5536 1.07858 14.2416 2.24936 15.6234L2.422 15.8248H16.578L16.7506 15.6234C17.9214 14.2416 18.6723 12.5536 18.9146 10.7588C19.157 8.964 18.8806 7.13733 18.1182 5.49453C17.3558 3.85173 16.1392 2.46142 14.6121 1.48781C13.0849 0.514188 11.3111 -0.00206871 9.49998 6.23017e-06ZM14.4488 5.45523L11.0422 8.79858C11.2163 9.16668 11.2547 9.58448 11.1506 9.97815C11.0465 10.3718 10.8065 10.716 10.4732 10.9499C10.1399 11.1838 9.73457 11.2923 9.32896 11.2563C8.92335 11.2203 8.54353 11.0421 8.25661 10.7531C7.96969 10.4642 7.79415 10.0831 7.76101 9.67725C7.72787 9.27139 7.83926 8.86688 8.0755 8.53521C8.31174 8.20354 8.65762 7.96605 9.05202 7.86471C9.44641 7.76338 9.86394 7.80473 10.2308 7.98144L13.6317 4.6381L14.4488 5.45523ZM1.21356 9.00574H3.17008V10.1566H1.19054C1.19054 9.9322 1.16177 9.71353 1.16177 9.48336C1.16177 9.25318 1.17328 9.16686 1.18479 9.00574H1.21356ZM4.02174 3.25128L5.43733 4.66687L4.59143 5.46099L3.17008 4.05115C3.42518 3.7601 3.70014 3.48707 3.99296 3.23401L4.02174 3.25128ZM10.0754 3.18798H8.92454V1.17392H9.49998C9.7129 1.17392 9.90279 1.17392 10.0754 1.20269V3.18798ZM17.8382 9.48911C17.8382 9.71353 17.8382 9.94371 17.8094 10.1624H15.7839V9.01149H17.8152C17.8267 9.16686 17.8382 9.32799 17.8382 9.48911Z" fill="#2A3747"/>
</svg>
