<svg width="31" height="36" viewBox="0 0 31 36" fill="none" xmlns="http://www.w3.org/2000/svg">
<path d="M7.3295 27.3891L15.4305 35.4901L23.5316 27.3891" stroke="#2A3747" stroke-linecap="round" stroke-linejoin="round"/>
<path d="M15.4305 13.8874V35.4901" stroke="#2A3747" stroke-linecap="round" stroke-linejoin="round"/>
<mask id="path-3-inside-1_61_108" fill="white">
<path d="M24.6888 23.1457H29.318C29.7272 23.1457 30.1197 22.9831 30.4091 22.6937C30.6985 22.4043 30.8611 22.0119 30.8611 21.6026V1.54293C30.8611 1.13369 30.6985 0.741203 30.4091 0.451825C30.1197 0.162446 29.7272 -0.00012449 29.318 -0.00012449H1.54305C1.13381 -0.00012449 0.741329 0.162446 0.45195 0.451825C0.162571 0.741203 0 1.13369 0 1.54293V21.6026C0 22.0119 0.162571 22.4043 0.45195 22.6937C0.741329 22.9831 1.13381 23.1457 1.54305 23.1457H6.17221"/>
</mask>
<path d="M24.6888 39.4628C15.6771 39.4628 8.3717 32.1574 8.3717 23.1457C8.3717 14.134 15.6771 6.82852 24.6888 6.82852V39.4628ZM6.17221 6.82852C15.1839 6.82852 22.4894 14.134 22.4894 23.1457C22.4894 32.1574 15.1839 39.4628 6.17221 39.4628V6.82852ZM24.6888 6.82852H29.318V39.4628H24.6888V6.82852ZM29.318 6.82852C25.3997 6.82852 21.6418 8.38507 18.8711 11.1558L41.9471 34.2317C38.5976 37.5811 34.0548 39.4628 29.318 39.4628V6.82852ZM18.8711 11.1558C16.1004 13.9265 14.5439 17.6843 14.5439 21.6026H47.1782C47.1782 26.3394 45.2965 30.8822 41.9471 34.2317L18.8711 11.1558ZM14.5439 21.6026V1.54293H47.1782V21.6026H14.5439ZM14.5439 1.54293C14.5439 5.46122 16.1004 9.21908 18.8711 11.9898L41.9471 -11.0861C45.2965 -7.73667 47.1782 -3.19385 47.1782 1.54293H14.5439ZM18.8711 11.9898C21.6419 14.7605 25.3997 16.317 29.318 16.317V-16.3173C34.0548 -16.3173 38.5976 -14.4356 41.9471 -11.0861L18.8711 11.9898ZM29.318 16.317H1.54305V-16.3173H29.318V16.317ZM1.54305 16.317C5.46136 16.317 9.21921 14.7605 11.9899 11.9898L-11.086 -11.0861C-7.73656 -14.4356 -3.19374 -16.3173 1.54305 -16.3173V16.317ZM11.9899 11.9898C14.7606 9.2191 16.3171 5.46126 16.3171 1.54293H-16.3171C-16.3171 -3.19388 -14.4355 -7.7367 -11.086 -11.0861L11.9899 11.9898ZM16.3171 1.54293V21.6026H-16.3171V1.54293H16.3171ZM16.3171 21.6026C16.3171 17.6843 14.7606 13.9264 11.9899 11.1558L-11.086 34.2317C-14.4354 30.8823 -16.3171 26.3394 -16.3171 21.6026H16.3171ZM11.9899 11.1558C9.21924 8.38508 5.4614 6.82852 1.54305 6.82852V39.4628C-3.19378 39.4628 -7.73659 37.5811 -11.086 34.2317L11.9899 11.1558ZM1.54305 6.82852H6.17221V39.4628H1.54305V6.82852Z" fill="#2A3747" mask="url(#path-3-inside-1_61_108)"/>
</svg>
