<svg width="21" height="20" viewBox="0 0 21 20" fill="none" xmlns="http://www.w3.org/2000/svg">
<path d="M12.8571 0H1.42857C1.04969 0 0.686328 0.15051 0.418419 0.418419C0.15051 0.686328 0 1.04969 0 1.42857V18.5714C0 18.9503 0.15051 19.3137 0.418419 19.5816C0.686328 19.8495 1.04969 20 1.42857 20H12.8571C13.236 20 13.5994 19.8495 13.8673 19.5816C14.1352 19.3137 14.2857 18.9503 14.2857 18.5714V14.2857H7.59286C7.40342 14.2857 7.22174 14.2105 7.08778 14.0765C6.95383 13.9426 6.87857 13.7609 6.87857 13.5714C6.87857 13.382 6.95383 13.2003 7.08778 13.0664C7.22174 12.9324 7.40342 12.8571 7.59286 12.8571H14.2857V1.42857C14.2857 1.04969 14.1352 0.686328 13.8673 0.418419C13.5994 0.15051 13.236 0 12.8571 0Z" fill="#F0536B"/>
<path d="M16.5429 9.77136C16.4063 9.65435 16.2305 9.5932 16.0507 9.60014C15.871 9.60709 15.7004 9.68161 15.5732 9.80882C15.446 9.93603 15.3715 10.1066 15.3645 10.2863C15.3576 10.4661 15.4187 10.6419 15.5358 10.7785L17.9501 13.1428H14.2858V14.5714H17.9501L15.5358 17.0428C15.461 17.1068 15.4003 17.1856 15.3574 17.2742C15.3145 17.3629 15.2904 17.4594 15.2866 17.5578C15.2828 17.6561 15.2994 17.7542 15.3353 17.8459C15.3712 17.9375 15.4257 18.0208 15.4953 18.0904C15.5649 18.16 15.6482 18.2145 15.7398 18.2504C15.8315 18.2863 15.9296 18.3029 16.0279 18.2991C16.1263 18.2953 16.2228 18.2712 16.3115 18.2283C16.4001 18.1854 16.4789 18.1247 16.5429 18.0499L20.7143 13.9071L16.5429 9.77136Z" fill="#F0536B"/>
</svg>
