<svg width="213" height="28" viewBox="0 0 213 28" fill="none" xmlns="http://www.w3.org/2000/svg">
<path d="M149.2 4H126.8C125.26 4 124.014 5.08 124.014 6.4L124 28L129.6 23.2H149.2C150.74 23.2 152 22.12 152 20.8V6.4C152 5.08 150.74 4 149.2 4ZM133.8 14.8H131V12.4H133.8V14.8ZM139.4 14.8H136.6V12.4H139.4V14.8ZM145 14.8H142.2V12.4H145V14.8Z" fill="#2A3747"/>
<path d="M4.33333 3C3.18406 3 2.08186 3.4425 1.2692 4.23015C0.456546 5.0178 0 6.08609 0 7.2V7.6221L13 14.4072L26 7.6242V7.2C26 6.08609 25.5435 5.0178 24.7308 4.23015C23.9181 3.4425 22.8159 3 21.6667 3H4.33333ZM26 10.0077L13.5135 16.524C13.3557 16.6063 13.1792 16.6494 13 16.6494C12.8208 16.6494 12.6443 16.6063 12.4865 16.524L0 10.0077V19.8C0 20.9139 0.456546 21.9822 1.2692 22.7698C2.08186 23.5575 3.18406 24 4.33333 24H21.6667C22.8159 24 23.9181 23.5575 24.7308 22.7698C25.5435 21.9822 26 20.9139 26 19.8V10.0077Z" fill="#2A3747"/>
<path d="M86.0556 6.01235C82.1663 -0.000198753 74.2257 -1.78771 68.0676 1.94982C62.0716 5.68735 60.127 13.8124 64.0163 19.825L64.3404 20.3125L63.044 25.1875L67.9056 23.8875L68.3917 24.2125C70.4984 25.35 72.7672 26 75.0359 26C77.4667 26 79.8975 25.35 82.0042 24.05C88.0002 20.15 89.7828 12.1874 86.0556 6.01235ZM82.6524 18.5249C82.0042 19.5 81.194 20.15 80.0596 20.3125C79.4114 20.3125 78.6011 20.6375 75.36 19.3374C72.6051 18.0374 70.3364 15.9249 68.7158 13.4874C67.7435 12.3499 67.2574 10.8874 67.0953 9.42487C67.0953 8.12486 67.5815 6.98736 68.3917 6.17485C68.7158 5.84985 69.0399 5.68735 69.3641 5.68735H70.1743C70.4984 5.68735 70.8225 5.68735 70.9846 6.33735C71.3087 7.14986 72.119 9.09987 72.119 9.26237C72.281 9.42487 72.281 9.74988 72.119 9.91238C72.281 10.2374 72.119 10.5624 71.9569 10.7249C71.7949 10.8874 71.6328 11.2124 71.4707 11.3749C71.1466 11.5374 70.9846 11.8624 71.1466 12.1874C71.7949 13.1624 72.6051 14.1374 73.4154 14.9499C74.3877 15.7624 75.36 16.4124 76.4944 16.8999C76.8185 17.0624 77.1426 17.0624 77.3047 16.7374C77.4667 16.4124 78.277 15.5999 78.6011 15.2749C78.9252 14.9499 79.0873 14.9499 79.4114 15.1124L82.0042 16.4124C82.3283 16.5749 82.6524 16.7374 82.8145 16.8999C82.9765 17.3874 82.9765 18.0374 82.6524 18.5249Z" fill="#2A3747"/>
<path d="M209 1.76853C209 1.60854 208.968 1.45013 208.907 1.30241C208.845 1.15469 208.755 1.02059 208.642 0.907816C208.528 0.795045 208.394 0.705835 208.246 0.645318C208.097 0.584802 207.939 0.554175 207.779 0.555201H192.332C192.172 0.554175 192.014 0.584802 191.865 0.645318C191.717 0.705835 191.583 0.795045 191.469 0.907816C191.356 1.02059 191.266 1.15469 191.204 1.30241C191.143 1.45013 191.111 1.60854 191.111 1.76853V21.1196C191.111 21.2796 191.143 21.4381 191.204 21.5858C191.266 21.7335 191.356 21.8676 191.469 21.9804C191.583 22.0931 191.717 22.1823 191.865 22.2429C192.014 22.3034 192.172 22.334 192.332 22.333H192.737V2.1652H209V1.76853Z" fill="#2A3747"/>
<path d="M210.944 3.66699H195.389C194.745 3.66699 194.222 4.18933 194.222 4.83366V24.2781C194.222 24.9224 194.745 25.4448 195.389 25.4448H210.944C211.589 25.4448 212.111 24.9224 212.111 24.2781V4.83366C212.111 4.18933 211.589 3.66699 210.944 3.66699Z" fill="#2A3747"/>
</svg>
