<svg width="17" height="16" viewBox="0 0 17 16" fill="none" xmlns="http://www.w3.org/2000/svg">
<path d="M8.5 0L17 3.4V4.53333H15.8667C15.8667 4.68681 15.8062 4.81962 15.6852 4.93177C15.5641 5.04392 15.421 5.1 15.2557 5.1H1.74427C1.57899 5.1 1.43585 5.04392 1.31484 4.93177C1.19384 4.81962 1.13333 4.68681 1.13333 4.53333H0V3.4L8.5 0ZM2.26667 5.66667H4.53333V12.4667H5.66667V5.66667H7.93333V12.4667H9.06667V5.66667H11.3333V12.4667H12.4667V5.66667H14.7333V12.4667H15.2557C15.421 12.4667 15.5641 12.5227 15.6852 12.6349C15.8062 12.747 15.8667 12.8799 15.8667 13.0333V13.6H1.13333V13.0333C1.13333 12.8799 1.19384 12.747 1.31484 12.6349C1.43585 12.5227 1.57899 12.4667 1.74427 12.4667H2.26667V5.66667ZM16.3891 14.1667C16.5543 14.1667 16.6975 14.2227 16.8185 14.3349C16.9395 14.447 17 14.5799 17 14.7333V15.8667H0V14.7333C0 14.5799 0.0605035 14.447 0.18151 14.3349C0.302517 14.2227 0.44566 14.1667 0.610937 14.1667H16.3891Z" fill="#2A3747"/>
</svg>
