<svg width="24" height="35" viewBox="0 0 24 35" fill="none" xmlns="http://www.w3.org/2000/svg">
<path d="M15.4286 0V7.70369C15.4286 8.21448 15.6092 8.70435 15.9307 9.06553C16.2522 9.42671 16.6882 9.62962 17.1429 9.62962H24" fill="#2A3747"/>
<path d="M20.5714 34.6666H3.42857C2.51925 34.6666 1.64719 34.2608 1.0042 33.5384C0.361223 32.8161 0 31.8363 0 30.8148V3.85185C0 2.83027 0.361223 1.85054 1.0042 1.12818C1.64719 0.405818 2.51925 0 3.42857 0H15.4286L24 9.62962V30.8148C24 31.8363 23.6387 32.8161 22.9958 33.5384C22.3528 34.2608 21.4807 34.6666 20.5714 34.6666ZM6.85713 7.70369H8.57142H6.85713ZM6.85713 19.2592H17.1428H6.85713ZM13.7143 26.9629H17.1428H13.7143Z" fill="#2A3747"/>
<path d="M4.99999 6.99999H9.99999" stroke="white" stroke-linecap="round"/>
<path d="M14 27H19" stroke="white" stroke-linecap="round"/>
<path d="M4.99999 17L19 17" stroke="white" stroke-linecap="round"/>
</svg>
