<svg width="42" height="40" viewBox="0 0 42 40" fill="none" xmlns="http://www.w3.org/2000/svg">
<path d="M22.1935 0.791696C21.6864 0.284773 20.9988 0 20.2817 0C19.5647 0 18.8771 0.284773 18.37 0.791696L0.396493 18.7625C0.270789 18.8882 0.171075 19.0375 0.103045 19.2017C0.0350148 19.3659 0 19.542 0 19.7197C0 19.8975 0.0350148 20.0735 0.103045 20.2378C0.171075 20.402 0.270789 20.5512 0.396493 20.677C0.650363 20.9308 0.994684 21.0734 1.35371 21.0734C1.53148 21.0734 1.70751 21.0384 1.87175 20.9704C2.03599 20.9024 2.18522 20.8027 2.31093 20.677L20.2817 2.70343L38.2526 20.677C38.5064 20.9308 38.8508 21.0734 39.2098 21.0734C39.5688 21.0734 39.9131 20.9308 40.167 20.677C40.4209 20.4231 40.5635 20.0788 40.5635 19.7197C40.5635 19.3607 40.4209 19.0164 40.167 18.7625L33.8018 12.4V3.4957C33.8018 3.13713 33.6593 2.79324 33.4058 2.53969C33.1522 2.28614 32.8083 2.1437 32.4498 2.1437H29.7458C29.3872 2.1437 29.0433 2.28614 28.7898 2.53969C28.5362 2.79324 28.3938 3.13713 28.3938 3.4957V6.99198L22.1935 0.791696Z" fill="#2A3747"/>
<path d="M20.2818 5.64053L33.023 18.3818C30.7733 18.2755 28.5382 18.7957 26.5666 19.8845C24.595 20.9733 22.9643 22.5879 21.856 24.5486C20.7477 26.5092 20.2053 28.739 20.2893 30.9897C20.3732 33.2404 21.0801 35.4236 22.3314 37.2963H8.11374C7.03802 37.2963 6.00635 36.869 5.24571 36.1083C4.48506 35.3477 4.05773 34.316 4.05773 33.2403V21.8646L20.2818 5.64053Z" fill="#2A3747"/>
<path d="M32.4498 40.0001C34.9598 40.0001 37.367 39.003 39.1418 37.2281C40.9167 35.4533 41.9138 33.0461 41.9138 30.536C41.9138 28.026 40.9167 25.6188 39.1418 23.844C37.367 22.0691 34.9598 21.072 32.4498 21.072C29.9397 21.072 27.5325 22.0691 25.7577 23.844C23.9828 25.6188 22.9857 28.026 22.9857 30.536C22.9857 33.0461 23.9828 35.4533 25.7577 37.2281C27.5325 39.003 29.9397 40.0001 32.4498 40.0001ZM28.3938 29.184H36.5058C36.8643 29.184 37.2082 29.3265 37.4618 29.58C37.7153 29.8336 37.8578 30.1775 37.8578 30.536C37.8578 30.8946 37.7153 31.2385 37.4618 31.492C37.2082 31.7456 36.8643 31.888 36.5058 31.888H28.3938C28.0352 31.888 27.6913 31.7456 27.4377 31.492C27.1842 31.2385 27.0417 30.8946 27.0417 30.536C27.0417 30.1775 27.1842 29.8336 27.4377 29.58C27.6913 29.3265 28.0352 29.184 28.3938 29.184Z" fill="#2A3747"/>
<rect x="22.8776" y="20.9638" width="19.0362" height="19.0362" rx="9.48777" fill="#2A3747"/>
<path d="M31.5225 38.2694V36.9744C30.2859 36.8469 29.4012 36.4645 28.8684 35.8271C28.3356 35.1898 28.0693 34.2627 28.0693 33.0459V32.5679H31.5028V32.9329C31.5028 33.8252 31.8218 34.2714 32.4598 34.2714C32.7361 34.2714 32.9367 34.1961 33.0616 34.0454C33.1932 33.8948 33.259 33.718 33.259 33.5152C33.259 33.156 33.0518 32.7909 32.6374 32.4201L29.8057 29.9083C28.7665 28.9928 28.2469 27.9991 28.2469 26.9271C28.2469 26.3477 28.3948 25.8378 28.6908 25.3974C28.9934 24.9513 29.3914 24.5891 29.8847 24.311C30.3846 24.0271 30.9305 23.8387 31.5225 23.746V22.6944H33.2294V23.72C34.3541 23.8474 35.2092 24.2559 35.7946 24.9455C36.38 25.635 36.6727 26.5476 36.6727 27.6833H33.1504V27.1183C33.1504 26.8692 33.0748 26.678 32.9235 26.5447C32.7722 26.4114 32.5716 26.3448 32.3217 26.3448C32.0454 26.3448 31.8382 26.4056 31.7001 26.5273C31.562 26.649 31.4929 26.8112 31.4929 27.014C31.4929 27.3037 31.8185 27.7325 32.4697 28.3004L35.2323 30.6992C35.6401 31.0526 35.9887 31.4814 36.2781 31.9855C36.5741 32.4896 36.7221 33.0604 36.7221 33.6977C36.7221 34.6538 36.3899 35.4187 35.7256 35.9923C35.0612 36.5601 34.2292 36.8933 33.2294 36.9918V38.2694H31.5225Z" fill="#F2F2F2"/>
</svg>
