<svg width="17" height="18" viewBox="0 0 17 18" fill="none" xmlns="http://www.w3.org/2000/svg">
<path d="M8.49771 5.87073C6.93694 5.87073 5.66323 7.19062 5.66323 8.80797C5.66323 10.4253 6.93694 11.7452 8.49771 11.7452C10.0585 11.7452 11.3322 10.4253 11.3322 8.80797C11.3322 7.19062 10.0585 5.87073 8.49771 5.87073ZM16.9991 8.80797C16.9991 7.59165 17.0097 6.38634 16.9438 5.17223C16.8778 3.762 16.5674 2.51042 15.5722 1.47919C14.575 0.445759 13.3693 0.126254 12.0084 0.0579459C10.8346 -0.010362 9.67149 0.000655413 8.49984 0.000655413C7.32607 0.000655413 6.16293 -0.010362 4.99129 0.0579459C3.63039 0.126254 2.4226 0.447962 1.42745 1.47919C0.430165 2.51262 0.121837 3.762 0.0559188 5.17223C-0.00999953 6.38855 0.000632484 7.59385 0.000632484 8.80797C0.000632484 10.0221 -0.00999953 11.2296 0.0559188 12.4437C0.121837 13.8539 0.432291 15.1055 1.42745 16.1368C2.42473 17.1702 3.63039 17.4897 4.99129 17.558C6.16506 17.6263 7.3282 17.6153 8.49984 17.6153C9.67361 17.6153 10.8368 17.6263 12.0084 17.558C13.3693 17.4897 14.5771 17.168 15.5722 16.1368C16.5695 15.1033 16.8778 13.8539 16.9438 12.4437C17.0118 11.2296 16.9991 10.0243 16.9991 8.80797ZM8.49771 13.3273C6.08425 13.3273 4.13648 11.3089 4.13648 8.80797C4.13648 6.30702 6.08425 4.28863 8.49771 4.28863C10.9112 4.28863 12.859 6.30702 12.859 8.80797C12.859 11.3089 10.9112 13.3273 8.49771 13.3273ZM13.0376 5.15901C12.4741 5.15901 12.019 4.68746 12.019 4.10354C12.019 3.51962 12.4741 3.04807 13.0376 3.04807C13.6011 3.04807 14.0561 3.51962 14.0561 4.10354C14.0563 4.24219 14.0301 4.37952 13.9789 4.50765C13.9278 4.63579 13.8528 4.75221 13.7582 4.85025C13.6636 4.9483 13.5512 5.02604 13.4276 5.07902C13.3039 5.132 13.1714 5.15918 13.0376 5.15901Z" fill="white"/>
</svg>
