<svg width="18" height="18" viewBox="0 0 18 18" fill="none" xmlns="http://www.w3.org/2000/svg">
<path d="M8.19 15.3H9.765V14.175C10.515 14.04 11.16 13.7475 11.7 13.2975C12.24 12.8475 12.51 12.18 12.51 11.295C12.51 10.665 12.33 10.0875 11.97 9.5625C11.61 9.0375 10.89 8.58 9.81 8.19C8.91 7.89 8.2875 7.6275 7.9425 7.4025C7.5975 7.1775 7.425 6.87 7.425 6.48C7.425 6.09 7.5639 5.7825 7.8417 5.5575C8.1189 5.3325 8.52 5.22 9.045 5.22C9.525 5.22 9.9 5.3364 10.17 5.5692C10.44 5.8014 10.635 6.09 10.755 6.435L12.195 5.85C12.03 5.325 11.7264 4.8675 11.2842 4.4775C10.8414 4.0875 10.35 3.87 9.81 3.825V2.7H8.235V3.825C7.485 3.99 6.9 4.32 6.48 4.815C6.06 5.31 5.85 5.865 5.85 6.48C5.85 7.185 6.0564 7.755 6.4692 8.19C6.8814 8.625 7.53 9 8.415 9.315C9.36 9.66 10.0164 9.9675 10.3842 10.2375C10.7514 10.5075 10.935 10.86 10.935 11.295C10.935 11.79 10.7586 12.1536 10.4058 12.3858C10.0536 12.6186 9.63 12.735 9.135 12.735C8.64 12.735 8.2014 12.5811 7.8192 12.2733C7.4364 11.9661 7.155 11.505 6.975 10.89L5.49 11.475C5.7 12.195 6.0264 12.7764 6.4692 13.2192C6.9114 13.6614 7.485 13.965 8.19 14.13V15.3ZM9 18C7.755 18 6.585 17.7636 5.49 17.2908C4.395 16.8186 3.4425 16.1775 2.6325 15.3675C1.8225 14.5575 1.1814 13.605 0.7092 12.51C0.2364 11.415 0 10.245 0 9C0 7.755 0.2364 6.585 0.7092 5.49C1.1814 4.395 1.8225 3.4425 2.6325 2.6325C3.4425 1.8225 4.395 1.1811 5.49 0.7083C6.585 0.2361 7.755 0 9 0C10.245 0 11.415 0.2361 12.51 0.7083C13.605 1.1811 14.5575 1.8225 15.3675 2.6325C16.1775 3.4425 16.8186 4.395 17.2908 5.49C17.7636 6.585 18 7.755 18 9C18 10.245 17.7636 11.415 17.2908 12.51C16.8186 13.605 16.1775 14.5575 15.3675 15.3675C14.5575 16.1775 13.605 16.8186 12.51 17.2908C11.415 17.7636 10.245 18 9 18ZM9 16.2C11.01 16.2 12.7125 15.5025 14.1075 14.1075C15.5025 12.7125 16.2 11.01 16.2 9C16.2 6.99 15.5025 5.2875 14.1075 3.8925C12.7125 2.4975 11.01 1.8 9 1.8C6.99 1.8 5.2875 2.4975 3.8925 3.8925C2.4975 5.2875 1.8 6.99 1.8 9C1.8 11.01 2.4975 12.7125 3.8925 14.1075C5.2875 15.5025 6.99 16.2 9 16.2Z" fill="white"/>
</svg>
