<svg width="43" height="28" viewBox="0 0 43 28" fill="none" xmlns="http://www.w3.org/2000/svg">
<g opacity="0.88">
<path d="M40.261 28H2.73864C1.23301 28 0.00341797 26.7347 0.00341797 25.1852V2.81476C0.00341797 1.26535 1.23301 0 2.73864 0H40.261C41.7667 0 42.9962 1.26535 42.9962 2.81476V25.1852C42.9962 26.7347 41.7667 28 40.261 28Z" fill="#FFC107"/>
<path d="M0 4.73291H43V10.6612H0V4.73291Z" fill="#424242"/>
<path d="M39.494 17.7406H3.52743C3.17611 17.7406 2.88574 17.4454 2.88574 17.0802V13.9777C2.88574 13.6162 3.17253 13.3174 3.52743 13.3174H39.494C39.8453 13.3174 40.1357 13.6125 40.1357 13.9777V17.0802C40.1321 17.4418 39.8453 17.7406 39.494 17.7406Z" fill="white"/>
<path d="M7.15137 16.394C7.35212 15.9956 7.40589 15.5308 7.58513 15.1213C7.76437 14.7118 8.15512 14.3319 8.5853 14.402C8.98321 14.4684 9.23057 14.8778 9.37755 15.2615C9.58188 15.7964 9.69301 16.3682 9.70735 16.9437C9.71093 17.0618 9.70376 17.1909 9.62848 17.2831C9.49584 17.4381 9.2234 17.3606 9.11944 17.1835C9.01548 17.0064 9.04057 16.7814 9.08717 16.5785C9.30943 15.6378 10.0264 14.8373 10.919 14.5348C11.0122 14.5016 11.109 14.4757 11.2058 14.4942C11.4137 14.5348 11.5284 14.7561 11.6216 14.9479C11.8403 15.3869 12.1056 15.8038 12.4103 16.1838C12.5322 16.3387 12.672 16.49 12.8584 16.549C13.4714 16.7334 13.8263 15.8038 14.4178 15.5566C15.1276 15.2615 15.8195 16.0325 16.5723 16.1764C17.6728 16.3867 18.2572 15.505 19.2215 15.28C19.3505 15.2504 19.4903 15.232 19.6194 15.2689C19.856 15.339 20.003 15.5714 20.1428 15.7817C20.469 16.276 20.935 16.763 21.5158 16.7666C21.885 16.7703 22.2256 16.5748 22.5625 16.4088C23.7563 15.8222 25.1651 15.5788 26.4126 16.0288" stroke="#424242" stroke-width="0.390625" stroke-miterlimit="10" stroke-linecap="round" stroke-linejoin="round"/>
</g>
</svg>
