<svg width="18" height="18" viewBox="0 0 18 18" fill="none" xmlns="http://www.w3.org/2000/svg">
<path d="M8.991 18C4.0212 17.9946 -0.00359759 13.9635 2.41314e-06 8.9937C0.00360241 4.0248 4.0338 -0.0017994 9.0027 6.03252e-07C13.9725 0.0018006 18 4.0302 18 9C17.9973 13.9725 13.9635 18.0018 8.991 18ZM1.8 9.1548C1.82046 11.0575 2.5933 12.8748 3.94963 14.2095C5.30596 15.5441 7.13546 16.2875 9.03829 16.2773C10.9411 16.2671 12.7625 15.504 14.1044 14.1549C15.4463 12.8057 16.1996 10.9803 16.1996 9.0774C16.1996 7.17455 15.4463 5.34906 14.1044 3.99993C12.7625 2.6508 10.9411 1.88773 9.03829 1.8775C7.13546 1.86728 5.30596 2.61072 3.94963 3.94535C2.5933 5.27998 1.82046 7.09726 1.8 9V9.1548ZM9.9 13.5H8.1V11.7H9.9V13.5ZM9.9 9.9H8.1V4.5H9.9V9.9Z" fill="white"/>
</svg>
