<svg width="15" height="17" viewBox="0 0 15 17" fill="none" xmlns="http://www.w3.org/2000/svg">
<path d="M14.4695 10.8515L10.8511 9.12551L9.32099 8.39559C9.98922 7.9746 10.532 7.32485 10.8871 6.54225C11.1833 5.88981 11.3366 5.18155 11.3365 4.46502C11.3365 4.04287 11.2695 3.64198 11.1762 3.25518C10.721 1.38082 9.25722 0 7.5 0C5.77606 0 4.33447 1.3316 3.85109 3.15259C3.73949 3.57035 3.66277 4.00474 3.66277 4.46502C3.66277 5.26426 3.84947 6.00943 4.16672 6.65755C4.53341 7.40942 5.0771 8.02936 5.73885 8.42794L4.27347 9.11026L0.537678 10.8501C0.213269 11.0022 0 11.3682 0 11.7769V15.8817C0 16.4319 0.38333 16.8778 0.856542 16.8778H6.405V13.7349C6.40577 13.7025 6.41527 13.6709 6.4325 13.6434L6.43019 13.6421L7.33895 12.0681L7.34126 12.0695C7.37361 12.014 7.43114 11.9747 7.5 11.9747C7.56886 11.9747 7.62639 12.0138 7.65874 12.0695L7.65966 12.0688L7.66798 12.0833C7.66914 12.0856 7.67075 12.0875 7.67168 12.0898L8.56842 13.6427L8.56727 13.6434C8.58451 13.671 8.594 13.7027 8.59476 13.7352V16.8781H14.1432C14.6164 16.8781 15 16.4321 15 15.882V11.7769C15.0007 11.3696 14.7909 11.007 14.4695 10.8515ZM8.56796 9.79905L8.57027 9.80044L7.66128 11.3744L7.65897 11.373C7.6432 11.4014 7.6202 11.4251 7.59233 11.4417C7.56445 11.4583 7.53267 11.4672 7.50023 11.4675C7.46779 11.4672 7.43601 11.4583 7.40813 11.4417C7.38026 11.4251 7.35726 11.4014 7.34149 11.373L7.34034 11.3737L7.33109 11.3578C7.3304 11.3562 7.32901 11.3548 7.32832 11.3532L6.43157 9.79975L6.4325 9.79905C6.41526 9.7715 6.40576 9.73981 6.405 9.70732C6.405 9.6045 6.48842 9.52109 6.59124 9.52109H8.40876C8.51158 9.52109 8.595 9.6045 8.595 9.70732C8.59462 9.73981 8.58526 9.77156 8.56796 9.79905Z" fill="#2A3747"/>
</svg>
