<svg width="30" height="30" viewBox="0 0 30 30" fill="none" xmlns="http://www.w3.org/2000/svg">
<path d="M2.09635 22.6482C0.2333 19.5049 -0.418373 15.7897 0.263675 12.2001C0.945723 8.61037 2.91459 5.39308 5.80064 3.15217C8.6867 0.911261 12.2915 -0.199154 15.9382 0.0293876C19.585 0.257929 23.0229 1.80971 25.6066 4.39341C28.1903 6.97711 29.7421 10.415 29.9706 14.0618C30.1992 17.7085 29.0887 21.3133 26.8478 24.1994C24.6069 27.0854 21.3896 29.0543 17.7999 29.7363C14.2103 30.4184 10.4951 29.7667 7.35182 27.9037L2.15892 29.3739C1.94616 29.4362 1.72058 29.44 1.50583 29.3851C1.29107 29.3301 1.09505 29.2184 0.938305 29.0617C0.781561 28.905 0.669868 28.7089 0.614934 28.4942C0.56 28.2794 0.563847 28.0538 0.626073 27.8411L2.09635 22.6482Z" fill="#F0536B"/>
<path d="M15.0162 16.8609C16.0529 16.8609 16.8932 16.0206 16.8932 14.984C16.8932 13.9474 16.0529 13.107 15.0162 13.107C13.9796 13.107 13.1393 13.9474 13.1393 14.984C13.1393 16.0206 13.9796 16.8609 15.0162 16.8609Z" fill="white"/>
<path d="M7.50814 16.8609C8.54476 16.8609 9.3851 16.0206 9.3851 14.984C9.3851 13.9474 8.54476 13.107 7.50814 13.107C6.47153 13.107 5.63119 13.9474 5.63119 14.984C5.63119 16.0206 6.47153 16.8609 7.50814 16.8609Z" fill="white"/>
<path d="M22.5238 16.8609C23.5604 16.8609 24.4007 16.0206 24.4007 14.984C24.4007 13.9474 23.5604 13.107 22.5238 13.107C21.4872 13.107 20.6468 13.9474 20.6468 14.984C20.6468 16.0206 21.4872 16.8609 22.5238 16.8609Z" fill="white"/>
</svg>
