<svg width="82" height="82" viewBox="0 0 82 82" fill="none" xmlns="http://www.w3.org/2000/svg">
<circle cx="40.9999" cy="40.9999" r="22.8846" stroke="white" stroke-opacity="0.05" stroke-width="12"/>
<path d="M40.6117 57C32.5419 57 26 50.0604 26 41.5C26 32.9396 32.5419 26 40.6117 26C44.1862 26 47.4608 27.3615 50 29.6223" stroke="#FF971D" stroke-width="10" stroke-linecap="round"/>
<circle cx="40.9999" cy="40.9999" r="28.9423" stroke="white" stroke-opacity="0.05" stroke-width="12"/>
<path d="M40.9969 65C27.7438 65 17 54.2548 17 41C17 27.7452 27.7438 17 40.9969 17C51.8675 17 61.0499 24.2292 64 34.1429" stroke="#16C782" stroke-width="10" stroke-linecap="round"/>
<circle cx="41" cy="41" r="35" stroke="white" stroke-opacity="0.05" stroke-width="12"/>
<path d="M41 75C22.2223 75 7 59.7777 7 41C7 22.2223 22.2223 7 41 7C59.7777 7 75 22.2223 75 41C75 42.0419 74.9531 43.0729 74.8614 44.0909" stroke="#F0536B" stroke-width="10" stroke-linecap="round"/>
</svg>
