<svg width="22" height="18" viewBox="0 0 22 18" fill="none" xmlns="http://www.w3.org/2000/svg">
<path d="M4.95 5.5C3.43062 5.5 2.2 4.26938 2.2 2.75C2.2 1.23063 3.43062 0 4.95 0C6.46938 0 7.7 1.23063 7.7 2.75C7.7 4.26938 6.46938 5.5 4.95 5.5ZM17.6 5.5C16.0806 5.5 14.85 4.26938 14.85 2.75C14.85 1.23063 16.0806 0 17.6 0C19.1194 0 20.35 1.23063 20.35 2.75C20.35 4.26938 19.1194 5.5 17.6 5.5ZM0 10.2678C0 8.24313 1.64312 6.6 3.66781 6.6H5.13562C5.68219 6.6 6.20125 6.72031 6.66875 6.93344C6.62406 7.18094 6.60344 7.43875 6.60344 7.7C6.60344 9.01313 7.18094 10.1922 8.09188 11H0.732188C0.33 11 0 10.67 0 10.2678ZM13.9322 11H13.9081C14.8225 10.1922 15.3966 9.01313 15.3966 7.7C15.3966 7.43875 15.3725 7.18438 15.3313 6.93344C15.7987 6.71688 16.3178 6.6 16.8644 6.6H18.3322C20.3569 6.6 22 8.24313 22 10.2678C22 10.6734 21.67 11 21.2678 11H13.9322ZM14.3 7.7C14.3 9.52188 12.8219 11 11 11C9.17813 11 7.7 9.52188 7.7 7.7C7.7 5.87813 9.17813 4.4 11 4.4C12.8219 4.4 14.3 5.87813 14.3 7.7ZM4.4 16.6822C4.4 14.1522 6.45219 12.1 8.98219 12.1H13.0178C15.5478 12.1 17.6 14.1522 17.6 16.6822C17.6 17.1875 17.1909 17.6 16.6822 17.6H5.31781C4.8125 17.6 4.4 17.1909 4.4 16.6822Z" fill="#2A3747"/>
</svg>
