<svg width="19" height="17" viewBox="0 0 19 17" fill="none" xmlns="http://www.w3.org/2000/svg">
<path d="M19 1.96666C18.3013 2.299 17.5507 2.52355 16.7616 2.62505C17.5758 2.1021 18.1849 1.27904 18.4753 0.309451C17.7104 0.797172 16.8732 1.14047 16.0001 1.32443C15.413 0.65155 14.6354 0.205551 13.7879 0.0556824C12.9405 -0.0941865 12.0707 0.0604587 11.3135 0.495609C10.5563 0.930759 9.95419 1.62207 9.60054 2.4622C9.2469 3.30234 9.16155 4.2443 9.35775 5.14184C7.80776 5.05831 6.29146 4.62586 4.90725 3.87258C3.52304 3.1193 2.30186 2.06201 1.32295 0.769337C0.988241 1.3891 0.795781 2.10768 0.795781 2.87295C0.795407 3.56188 0.953458 4.24025 1.25591 4.84789C1.55836 5.45552 1.99586 5.97362 2.5296 6.35623C1.91061 6.33509 1.30528 6.15555 0.763983 5.83257V5.88646C0.763921 6.85271 1.07529 7.78922 1.64527 8.53709C2.21524 9.28496 3.00871 9.79812 3.89104 9.98951C3.31683 10.1563 2.71481 10.1809 2.13045 10.0614C2.37939 10.8928 2.86431 11.6198 3.51731 12.1407C4.17031 12.6615 4.95871 12.9502 5.77213 12.9662C4.3913 14.1297 2.68598 14.7609 0.930503 14.7581C0.619538 14.7582 0.308837 14.7387 0 14.6997C1.78191 15.9296 3.85618 16.5822 5.97463 16.5797C13.1459 16.5797 17.0662 10.2042 17.0662 4.67477C17.0662 4.49513 17.062 4.31369 17.0545 4.13405C17.817 3.5421 18.4753 2.80909 18.9983 1.96935L19 1.96666Z" fill="white"/>
</svg>
