<svg width="62" height="23" viewBox="0 0 62 23" fill="none" xmlns="http://www.w3.org/2000/svg">
<path d="M41.3644 16.5604C41.3644 15.6195 41.0097 15.1038 40.4746 14.7358C39.9299 14.381 39.2727 14.3326 38.3733 14.3326H34.3857V22.6182H36.1323V19.6015H38.0011C38.6156 19.6015 39.0013 19.672 39.232 19.9695C39.5441 20.3485 39.5054 21.0823 39.5054 21.5891V22.6116H41.2016V20.9809C41.2016 20.2471 41.1628 19.8791 40.9302 19.4648C40.7019 19.154 40.4057 18.9169 40.0714 18.7773L40.1199 18.7531C40.5948 18.5481 41.3625 17.8804 41.3625 16.5604H41.3644ZM39.1118 17.7526L39.0401 17.7416C38.8075 17.9025 38.5361 17.9157 38.1814 17.9157H36.0936V16.0668H38.224C38.5361 16.0668 38.8385 16.0668 39.0828 16.2167C39.2044 16.2841 39.3057 16.3911 39.3737 16.5241C39.4417 16.6572 39.4734 16.8102 39.4647 16.9637C39.4647 17.3185 39.3425 17.5917 39.1215 17.7548L39.1118 17.7526ZM52.4295 20.8421H49.0778V22.6116H52.4508C54.1955 22.6116 55.1648 21.7941 55.1648 20.0179C55.1648 19.1894 54.9942 18.6958 54.6821 18.3079C54.2886 17.9179 53.6605 17.7328 52.7959 17.6997L51.8247 17.6534C51.5533 17.6534 51.3614 17.6534 51.1598 17.5631C51.0447 17.5222 50.9446 17.4394 50.8749 17.3275C50.8052 17.2157 50.7698 17.0809 50.774 16.9439C50.774 16.6794 50.8147 16.4613 51.0066 16.3357C51.2223 16.199 51.4677 16.1348 51.7142 16.1506H54.8837V14.3854H51.4001C49.5838 14.3854 48.9266 15.6702 48.9266 16.8535C48.9266 19.5045 50.9272 19.3657 52.5633 19.4119C52.825 19.4119 53.0266 19.456 53.1371 19.5816C53.2592 19.6764 53.3484 19.8923 53.3484 20.1105C53.3484 20.3397 53.2573 20.5578 53.1468 20.6394C52.9975 20.798 52.7649 20.8443 52.4314 20.8443L52.4295 20.8421ZM54.6491 18.2462C54.6588 18.2705 54.6588 18.2925 54.6704 18.3057C54.7015 18.3256 54.7402 18.3256 54.7616 18.3608L54.6511 18.2572L54.6491 18.2462ZM61.5561 12.7503H61.7286V14.381H61.5561V12.7503ZM61.6453 18.4754V18.4512C61.5755 18.3829 61.5348 18.3167 61.4533 18.2462C61.0715 17.7989 60.4434 17.6138 59.4838 17.5917L58.5456 17.5587C58.2431 17.5587 58.0512 17.5344 57.8496 17.4683C57.7347 17.4271 57.6348 17.3442 57.5652 17.2324C57.4955 17.1206 57.46 16.986 57.4639 16.8491C57.4639 16.5847 57.5433 16.3753 57.6965 16.2497C57.8884 16.1241 58.0784 16.1021 58.3924 16.1021H61.5541V14.381H58.2431C56.4539 14.381 55.7599 15.6658 55.7599 16.8491C55.7599 19.4869 57.7779 19.3613 59.4043 19.4075C59.6776 19.4075 59.8696 19.4406 59.9801 19.5772C60.1022 19.672 60.1817 19.8879 60.1817 20.1061C60.1802 20.2084 60.1586 20.3091 60.1183 20.4006C60.078 20.4922 60.0202 20.5723 59.949 20.635C59.8269 20.7936 59.5943 20.8399 59.2531 20.8399H55.9189V22.6182H59.2434C60.3309 22.6182 61.1412 22.2745 61.5755 21.5627H61.6453C61.8779 21.1594 62 20.679 62 20.0268C62 19.3128 61.8779 18.8787 61.6453 18.4754ZM48.0368 16.0558V14.3458H42.26V22.6667H48.0368V20.9457H43.9756V19.2819H47.936V17.5609H43.9756V16.069L48.0368 16.0558ZM34.8917 0.123481H36.6577V8.40036H34.8917V0.123481ZM33.8914 2.35136L33.8701 2.3756C33.8701 1.44346 33.5366 0.905774 32.9919 0.539969C32.4356 0.171961 31.7823 0.136702 30.9041 0.136702H26.9263V8.42239H28.671V5.38137H30.53C31.1445 5.38137 31.54 5.47172 31.792 5.73615C32.108 6.13942 32.0653 6.84899 32.0653 7.34261V8.38934H33.8119V6.76966C33.8119 6.03585 33.7712 5.66784 33.527 5.24254C33.2997 4.9363 33.0084 4.69988 32.6798 4.555C33.0532 4.36737 33.369 4.05756 33.5868 3.66508C33.8047 3.2726 33.9148 2.81525 33.903 2.35136H33.8914ZM31.6815 3.51268H31.6505C31.4081 3.67134 31.1445 3.68236 30.7917 3.68236H28.6613V1.84673H30.7917C31.1038 1.84673 31.4062 1.85774 31.6388 1.99657C31.8715 2.11116 32.0324 2.3756 32.0324 2.73039C32.0324 3.08517 31.9102 3.37385 31.6815 3.51268ZM41.1202 1.84673H42.7466V0.0904254H41.0794C39.8873 0.0904254 39.0091 0.401139 38.445 1.05782C37.7084 1.93928 37.5145 3.08738 37.5145 4.32803C37.5145 5.83311 37.8266 6.77187 38.445 7.47262C39.0401 8.17118 40.1102 8.39154 40.9476 8.39154H42.9695L43.6267 6.54269H47.2188L47.8953 8.39154H51.4079V2.1927L54.7015 8.39154H57.1653V0.125683H55.3877V5.89922L52.3403 0.136702H49.7039V7.80317L46.7748 7.47908e-05H44.1791L41.7463 6.53167H40.969C40.5173 6.53167 40.0307 6.44132 39.7593 6.1284C39.4356 5.69428 39.2844 5.07286 39.2844 4.1892C39.2844 3.35181 39.486 2.68411 39.7787 2.34034C40.1218 1.93708 40.4863 1.84673 41.1124 1.84673H41.1202ZM45.4314 1.53822L46.6236 4.81944V4.83046H44.2199L45.4314 1.53822ZM6.11622 6.54048L6.77338 8.38934H10.3073V1.91725L12.8216 8.38934H14.3259L16.8382 1.91725L16.8789 8.38934H18.6643V0.136702H15.7778L13.6978 5.72514L11.4278 0.125683H8.6111V7.95302L5.6626 0.125683H3.08824L0.00017226 8.39154H1.85534L2.52219 6.55591H6.11816L6.11622 6.54048ZM4.33859 1.53822L5.53078 4.81944L5.52109 4.83046H3.15803L4.33859 1.53822ZM30.6095 14.3326H25.0789L22.8767 17.0408L20.7463 14.3326H13.7908V22.6182H20.6455L22.8554 19.8769L24.9878 22.6094H28.3472V19.8527H30.5184C32.0634 19.8527 33.5366 19.3701 33.5366 17.0761L33.527 17.0651C33.527 14.7711 31.9839 14.3326 30.6095 14.3326ZM19.7964 20.8884H15.5258V19.2467H19.3195V17.5609H15.5258V16.069H19.8662L21.7659 18.4776L19.7867 20.8994L19.7964 20.8884ZM26.62 21.8646L23.9545 18.4886L26.62 15.2427V21.8646ZM30.6289 18.1669H28.3472V16.0536H30.6289C31.255 16.0536 31.7202 16.3423 31.7202 17.0651C31.7202 17.7879 31.3384 18.1669 30.6289 18.1669ZM25.7341 1.84673V0.125683H19.9476V8.40256H25.7341V6.69253H21.6729V5.0376H25.6217V3.33859H21.6729V1.84673H25.7341Z" fill="white"/>
</svg>
