<svg width="29" height="29" viewBox="0 0 29 29" fill="none" xmlns="http://www.w3.org/2000/svg">
<path d="M2.02647 21.8932C0.225523 18.8548 -0.404427 15.2634 0.254886 11.7934C0.914199 8.32335 2.81743 5.21331 5.60729 3.0471C8.39714 0.880885 11.8817 -0.192515 15.4069 0.028408C18.9321 0.249331 22.2554 1.74939 24.753 4.24696C27.2506 6.74453 28.7507 10.0679 28.9716 13.593C29.1925 17.1182 28.1191 20.6028 25.9529 23.3927C23.7867 26.1825 20.6766 28.0858 17.2066 28.7451C13.7366 29.4044 10.1452 28.7745 7.10675 26.9735L2.08695 28.3948C1.88129 28.4549 1.66323 28.4586 1.45563 28.4055C1.24804 28.3524 1.05855 28.2445 0.907028 28.093C0.755508 27.9414 0.647539 27.7519 0.594436 27.5444C0.541333 27.3368 0.545052 27.1187 0.605204 26.913L2.02647 21.8932Z" fill="#F0536B"/>
<path d="M18.1595 22.9525C16.568 22.9564 14.9913 22.6459 13.5201 22.0387C12.0489 21.4315 10.7122 20.5395 9.58683 19.4141C8.46143 18.2887 7.56949 16.952 6.96227 15.4808C6.35504 14.0097 6.0445 12.433 6.04849 10.8414C6.05249 9.72124 6.50029 8.6483 7.29381 7.85762C8.08732 7.06694 9.16186 6.62298 10.2821 6.62299C10.4669 6.62151 10.6487 6.66988 10.8083 6.76301C10.968 6.85614 11.0996 6.99058 11.1893 7.15218L12.9583 10.2366C13.0635 10.4241 13.1175 10.636 13.1148 10.851C13.1122 11.066 13.053 11.2765 12.9432 11.4613L11.5219 13.8352C12.2499 15.4546 13.5463 16.7511 15.1658 17.4791L17.5396 16.0578C17.7245 15.948 17.9349 15.8888 18.1499 15.8861C18.3649 15.8835 18.5768 15.9375 18.7643 16.0427L21.8488 17.8117C22.0104 17.9014 22.1448 18.033 22.2379 18.1926C22.3311 18.3523 22.3794 18.5341 22.378 18.7189C22.374 19.8379 21.9288 20.9101 21.1389 21.7028C20.3491 22.4954 19.2785 22.9445 18.1595 22.9525Z" fill="white"/>
</svg>
