<svg width="13" height="12" viewBox="0 0 13 12" fill="none" xmlns="http://www.w3.org/2000/svg">
<path d="M12.1426 3.76956C12.1382 3.70018 12.1075 3.63509 12.0568 3.58748C12.0062 3.53988 11.9393 3.51332 11.8698 3.5132H9.90137V0.274679C9.90137 0.12278 9.77844 0 9.62669 0H2.51775C2.366 0 2.24307 0.12278 2.24307 0.274679V3.5132H0.274679C0.129234 3.5132 0.0114075 3.62652 0.00180119 3.76956H0V9.28852C3.97943e-05 9.36134 0.0289968 9.43117 0.0805049 9.48265C0.132013 9.53413 0.201856 9.56305 0.274679 9.56305H2.24307V7.26445H9.90122V9.56305H11.8696C11.9424 9.56305 12.0123 9.53413 12.0638 9.48265C12.1153 9.43117 12.1442 9.36134 12.1443 9.28852V3.76956H12.1426ZM9.15283 4.7437H2.99161V1.02322C2.99161 0.871319 3.11454 0.748539 3.26628 0.748539H8.878C9.02975 0.748539 9.15268 0.871319 9.15268 1.02322V4.7437H9.15283Z" fill="white"/>
<path d="M3.01044 11.7253C3.01044 11.8772 3.13337 12 3.28512 12H8.85917C9.01091 12 9.13384 11.8772 9.13384 11.7253V8.02686H3.01044V11.7253Z" fill="white"/>
</svg>
