<svg width="47" height="47" viewBox="0 0 47 47" fill="none" xmlns="http://www.w3.org/2000/svg">
<path d="M39.6562 11.9336H33.4141L31.927 7.76602C31.8242 7.48084 31.6359 7.23434 31.3878 7.06018C31.1397 6.88602 30.8439 6.7927 30.5408 6.79297H16.4592C15.8396 6.79297 15.2842 7.18311 15.0776 7.76602L13.5859 11.9336H7.34375C5.31504 11.9336 3.67188 13.5768 3.67188 15.6055V36.5352C3.67188 38.5639 5.31504 40.207 7.34375 40.207H39.6562C41.685 40.207 43.3281 38.5639 43.3281 36.5352V15.6055C43.3281 13.5768 41.685 11.9336 39.6562 11.9336ZM23.5 32.8633C19.4426 32.8633 16.1562 29.577 16.1562 25.5195C16.1562 21.4621 19.4426 18.1758 23.5 18.1758C27.5574 18.1758 30.8438 21.4621 30.8438 25.5195C30.8438 29.577 27.5574 32.8633 23.5 32.8633ZM19.0938 25.5195C19.0938 26.6881 19.558 27.8089 20.3843 28.6352C21.2106 29.4616 22.3314 29.9258 23.5 29.9258C24.6686 29.9258 25.7894 29.4616 26.6157 28.6352C27.442 27.8089 27.9062 26.6881 27.9062 25.5195C27.9062 24.3509 27.442 23.2302 26.6157 22.4038C25.7894 21.5775 24.6686 21.1133 23.5 21.1133C22.3314 21.1133 21.2106 21.5775 20.3843 22.4038C19.558 23.2302 19.0938 24.3509 19.0938 25.5195Z" fill="#2A3747"/>
</svg>
