<svg width="17" height="14" viewBox="0 0 17 14" fill="none" xmlns="http://www.w3.org/2000/svg">
<path d="M17 3.49521V10.8804C17 11.5675 16.7201 12.2264 16.222 12.7123C15.7239 13.1981 15.0482 13.471 14.3438 13.471H2.65625C1.95177 13.471 1.27614 13.1981 0.777998 12.7123C0.279854 12.2264 0 11.5675 0 10.8804V3.49521L8.23013 8.21836C8.31189 8.26538 8.40508 8.29019 8.5 8.29019C8.59492 8.29019 8.68811 8.26538 8.76987 8.21836L17 3.49521ZM14.3438 3.20742e-08C14.9973 -0.00010022 15.628 0.234817 16.1152 0.65981C16.6023 1.0848 16.9116 1.67003 16.9841 2.30354L8.5 7.17072L0.0159376 2.30354C0.0883557 1.67003 0.397719 1.0848 0.884845 0.65981C1.37197 0.234817 2.00266 -0.00010022 2.65625 3.20742e-08H14.3438Z" fill="white"/>
</svg>
