<svg width="47" height="63" viewBox="0 0 47 63" fill="none" xmlns="http://www.w3.org/2000/svg">
<rect width="393" height="852" transform="translate(-300 -134)" fill="#EDEDEE"/>
<path d="M7.83333 0C3.51276 0 0 3.53145 0 7.875V55.125C0 59.4686 3.51276 63 7.83333 63H39.1667C43.4872 63 47 59.4686 47 55.125V19.6875H31.3333C29.1669 19.6875 27.4167 17.9279 27.4167 15.75V0H7.83333ZM31.3333 0V15.75H47L31.3333 0ZM9.79167 7.875H17.625C18.7021 7.875 19.5833 8.76094 19.5833 9.84375C19.5833 10.9266 18.7021 11.8125 17.625 11.8125H9.79167C8.71458 11.8125 7.83333 10.9266 7.83333 9.84375C7.83333 8.76094 8.71458 7.875 9.79167 7.875ZM9.79167 15.75H17.625C18.7021 15.75 19.5833 16.6359 19.5833 17.7188C19.5833 18.8016 18.7021 19.6875 17.625 19.6875H9.79167C8.71458 19.6875 7.83333 18.8016 7.83333 17.7188C7.83333 16.6359 8.71458 15.75 9.79167 15.75ZM11.75 27.5625H35.25C37.4164 27.5625 39.1667 29.3221 39.1667 31.5V39.375C39.1667 41.5529 37.4164 43.3125 35.25 43.3125H11.75C9.58359 43.3125 7.83333 41.5529 7.83333 39.375V31.5C7.83333 29.3221 9.58359 27.5625 11.75 27.5625ZM11.75 31.5V39.375H35.25V31.5H11.75ZM29.375 51.1875H37.2083C38.2854 51.1875 39.1667 52.0734 39.1667 53.1562C39.1667 54.2391 38.2854 55.125 37.2083 55.125H29.375C28.2979 55.125 27.4167 54.2391 27.4167 53.1562C27.4167 52.0734 28.2979 51.1875 29.375 51.1875Z" fill="#006817"/>
</svg>
