<svg width="15" height="15" viewBox="0 0 15 15" fill="none" xmlns="http://www.w3.org/2000/svg">
<mask id="mask0_67_1180" style="mask-type:alpha" maskUnits="userSpaceOnUse" x="0" y="0" width="15" height="15">
<path d="M13.0395 0.85242H1.96023C1.66638 0.85242 1.38458 0.969148 1.1768 1.17693C0.969023 1.3847 0.852295 1.66651 0.852295 1.96035V13.0396C0.852295 13.3335 0.969023 13.6153 1.1768 13.8231C1.38458 14.0309 1.66638 14.1476 1.96023 14.1476H13.0395C13.3334 14.1476 13.6152 14.0309 13.8229 13.8231C14.0307 13.6153 14.1475 13.3335 14.1475 13.0396V1.96035C14.1475 1.66651 14.0307 1.3847 13.8229 1.17693C13.6152 0.969148 13.3334 0.85242 13.0395 0.85242Z" fill="white" stroke="white" stroke-width="1.66667" stroke-linecap="round" stroke-linejoin="round"/>
<path d="M6.39197 10.0852L8.23852 11.5624L11.193 7.86931M3.8068 4.17621H11.193M3.8068 7.13069H6.76128" stroke="black" stroke-width="1.66667" stroke-linecap="round" stroke-linejoin="round"/>
</mask>
<g mask="url(#mask0_67_1180)">
<path d="M-1.36352 -1.36327H16.3634V16.3636H-1.36352V-1.36327Z" fill="#2A3747"/>
<line x1="4.46584" y1="3.95449" x2="4.46584" y2="7.49987" stroke="white"/>
<line x1="3.95449" y1="9.64778" x2="7.49987" y2="9.64778" stroke="white"/>
<line x1="6.2386" y1="3.95449" x2="6.2386" y2="7.49987" stroke="white"/>
<line x1="8.01123" y1="3.95449" x2="8.01123" y2="7.49987" stroke="white"/>
</g>
</svg>
