<svg width="27" height="29" viewBox="0 0 27 29" fill="none" xmlns="http://www.w3.org/2000/svg">
<path fill-rule="evenodd" clip-rule="evenodd" d="M3.93843 16.6593V16.3947C3.97457 15.6118 4.20817 14.8533 4.61515 14.1973C5.29256 13.4093 5.75629 12.4436 5.95768 11.4016C5.95768 10.5963 5.95768 9.77949 6.02317 8.97416C6.36153 5.09709 9.93069 2.4165 13.4562 2.4165H13.5435C17.069 2.4165 20.6382 5.09709 20.9874 8.97416C21.0529 9.77949 20.9874 10.5963 21.042 11.4016C21.2461 12.446 21.7094 13.4147 22.3845 14.2088C22.7946 14.859 23.0285 15.6147 23.0613 16.3947V16.6478C23.0856 17.6996 22.7484 18.7252 22.1117 19.5354C21.2703 20.4829 20.1286 21.0723 18.9027 21.1921C15.3079 21.6063 11.6809 21.6063 8.08608 21.1921C6.86154 21.0671 5.72148 20.4786 4.87711 19.5354C4.25025 18.7245 3.91752 17.705 3.93843 16.6593Z" stroke="#2A3747" stroke-width="1.5" stroke-linecap="round" stroke-linejoin="round"/>
<path d="M10.7493 25.1958C11.311 25.953 12.1358 26.4431 13.0412 26.5575C13.9467 26.672 14.858 26.4013 15.5736 25.8055C15.7937 25.6293 15.9918 25.4245 16.163 25.1958" stroke="#2A3747" stroke-width="1.5" stroke-linecap="round" stroke-linejoin="round"/>
</svg>
