<svg width="42" height="48" viewBox="0 0 42 48" fill="none" xmlns="http://www.w3.org/2000/svg">
<path opacity="0.2" d="M27.531 1.00462C27.0507 0.615198 26.4953 0.32893 25.8995 0.163682C25.3037 -0.00156714 24.6802 -0.0422508 24.0679 0.0441688C23.4557 0.130588 22.8678 0.342257 22.341 0.665967C21.8142 0.989677 21.3597 1.41848 21.006 1.92563L11.88 14.9967H15.54L23.46 3.64164C23.578 3.47222 23.7297 3.32898 23.9056 3.22088C24.0815 3.11278 24.2778 3.04216 24.4822 3.01344C24.6867 2.98471 24.8949 2.9985 25.0937 3.05395C25.2926 3.10939 25.4779 3.20529 25.638 3.33564L28.062 5.30366L21.36 14.9967H25.008L30.396 7.19667L35.448 11.2977C35.7424 11.537 35.9351 11.879 35.9874 12.2547C36.0398 12.6305 35.9478 13.0121 35.73 13.3227L34.56 14.9967H38.22C38.8561 14.0642 39.1185 12.9266 38.9551 11.8097C38.7917 10.6927 38.2145 9.67798 37.338 8.96669L27.528 1.00462H27.531ZM4.5 11.9997C3.30653 11.9997 2.16193 12.4738 1.31802 13.3177C0.474106 14.1617 0 15.3063 0 16.4997V40.4999C0 42.4891 0.790176 44.3967 2.1967 45.8033C3.60322 47.2098 5.51088 48 7.5 48H36C37.5913 48 39.1174 47.3679 40.2426 46.2426C41.3679 45.1174 42 43.5913 42 42V23.9998C42 22.4085 41.3679 20.8824 40.2426 19.7571C39.1174 18.6319 37.5913 17.9998 36 17.9998H4.5C4.10218 17.9998 3.72064 17.8417 3.43934 17.5604C3.15804 17.2791 3 16.8976 3 16.4997C3 16.1019 3.15804 15.7204 3.43934 15.4391C3.72064 15.1578 4.10218 14.9997 4.5 14.9997H8.907L11.007 11.9997H4.5ZM31.5 32.9999H34.5C34.8978 32.9999 35.2794 33.1579 35.5607 33.4392C35.842 33.7205 36 34.1021 36 34.4999C36 34.8977 35.842 35.2793 35.5607 35.5606C35.2794 35.8419 34.8978 35.9999 34.5 35.9999H31.5C31.1022 35.9999 30.7206 35.8419 30.4393 35.5606C30.158 35.2793 30 34.8977 30 34.4999C30 34.1021 30.158 33.7205 30.4393 33.4392C30.7206 33.1579 31.1022 32.9999 31.5 32.9999Z" fill="#F0536B"/>
</svg>
